<mxfile host="Electron" agent="Mozilla/5.0 (Windows NT 10.0; Win64; x64) AppleWebKit/537.36 (KHTML, like Gecko) draw.io/24.7.17 Chrome/128.0.6613.36 Electron/32.0.1 Safari/537.36" version="24.7.17">
  <diagram id="C5RBs43oDa-KdzZeNtuy" name="Page-1">
    <mxGraphModel dx="1434" dy="836" grid="1" gridSize="10" guides="1" tooltips="1" connect="1" arrows="1" fold="1" page="1" pageScale="1" pageWidth="1169" pageHeight="827" math="0" shadow="0">
      <root>
        <mxCell id="WIyWlLk6GJQsqaUBKTNV-0" />
        <mxCell id="WIyWlLk6GJQsqaUBKTNV-1" parent="WIyWlLk6GJQsqaUBKTNV-0" />
        <mxCell id="9SEhbg0xae_aEMlPJVJQ-2" value="" style="edgeStyle=orthogonalEdgeStyle;rounded=0;orthogonalLoop=1;jettySize=auto;html=1;" edge="1" parent="WIyWlLk6GJQsqaUBKTNV-1" source="9SEhbg0xae_aEMlPJVJQ-0" target="9SEhbg0xae_aEMlPJVJQ-1">
          <mxGeometry relative="1" as="geometry" />
        </mxCell>
        <mxCell id="9SEhbg0xae_aEMlPJVJQ-0" value="遍历每个&lt;div&gt;self.bit16_groups&lt;/div&gt;" style="rounded=1;whiteSpace=wrap;html=1;" vertex="1" parent="WIyWlLk6GJQsqaUBKTNV-1">
          <mxGeometry x="42" y="160" width="120" height="60" as="geometry" />
        </mxCell>
        <mxCell id="9SEhbg0xae_aEMlPJVJQ-4" value="" style="edgeStyle=orthogonalEdgeStyle;rounded=0;orthogonalLoop=1;jettySize=auto;html=1;" edge="1" parent="WIyWlLk6GJQsqaUBKTNV-1" source="9SEhbg0xae_aEMlPJVJQ-1" target="9SEhbg0xae_aEMlPJVJQ-3">
          <mxGeometry relative="1" as="geometry" />
        </mxCell>
        <mxCell id="9SEhbg0xae_aEMlPJVJQ-1" value="&lt;font style=&quot;font-size: 13px;&quot;&gt;free_grad_in_param_list&lt;/font&gt;&lt;div style=&quot;font-size: 13px;&quot;&gt;&lt;font color=&quot;#ff0000&quot; style=&quot;font-size: 13px;&quot;&gt;(释放非本partition的grad)&lt;/font&gt;&lt;/div&gt;" style="rounded=1;whiteSpace=wrap;html=1;" vertex="1" parent="WIyWlLk6GJQsqaUBKTNV-1">
          <mxGeometry x="204" y="160" width="160" height="60" as="geometry" />
        </mxCell>
        <mxCell id="9SEhbg0xae_aEMlPJVJQ-6" value="" style="edgeStyle=orthogonalEdgeStyle;rounded=0;orthogonalLoop=1;jettySize=auto;html=1;" edge="1" parent="WIyWlLk6GJQsqaUBKTNV-1" source="9SEhbg0xae_aEMlPJVJQ-3" target="9SEhbg0xae_aEMlPJVJQ-5">
          <mxGeometry relative="1" as="geometry" />
        </mxCell>
        <mxCell id="9SEhbg0xae_aEMlPJVJQ-3" value="&lt;span style=&quot;font-size: 13px;&quot;&gt;self.averaged_gradients[i]&lt;/span&gt;&lt;div&gt;&lt;span style=&quot;font-size: 13px;&quot;&gt;&lt;font color=&quot;#ff0000&quot;&gt;(对本区内的reduce后的grad 进行flatten，并且数据类型转换到高精度)&lt;/font&gt;&lt;/span&gt;&lt;/div&gt;" style="rounded=1;whiteSpace=wrap;html=1;" vertex="1" parent="WIyWlLk6GJQsqaUBKTNV-1">
          <mxGeometry x="403" y="160" width="220" height="60" as="geometry" />
        </mxCell>
        <mxCell id="9SEhbg0xae_aEMlPJVJQ-8" value="" style="edgeStyle=orthogonalEdgeStyle;rounded=0;orthogonalLoop=1;jettySize=auto;html=1;" edge="1" parent="WIyWlLk6GJQsqaUBKTNV-1" source="9SEhbg0xae_aEMlPJVJQ-5" target="9SEhbg0xae_aEMlPJVJQ-7">
          <mxGeometry relative="1" as="geometry" />
        </mxCell>
        <mxCell id="9SEhbg0xae_aEMlPJVJQ-5" value="&lt;span style=&quot;font-size: 13px;&quot;&gt;self.single_partition_of_fp32_groups[i].&lt;/span&gt;&lt;div&gt;&lt;span style=&quot;font-size: 13px;&quot;&gt;grad = single_grad_partition&lt;/span&gt;&lt;/div&gt;" style="rounded=1;whiteSpace=wrap;html=1;" vertex="1" parent="WIyWlLk6GJQsqaUBKTNV-1">
          <mxGeometry x="665" y="160" width="230" height="60" as="geometry" />
        </mxCell>
        <mxCell id="9SEhbg0xae_aEMlPJVJQ-10" value="" style="edgeStyle=orthogonalEdgeStyle;rounded=0;orthogonalLoop=1;jettySize=auto;html=1;" edge="1" parent="WIyWlLk6GJQsqaUBKTNV-1" source="9SEhbg0xae_aEMlPJVJQ-7" target="9SEhbg0xae_aEMlPJVJQ-9">
          <mxGeometry relative="1" as="geometry" />
        </mxCell>
        <mxCell id="9SEhbg0xae_aEMlPJVJQ-7" value="&lt;span style=&quot;font-size: 13px;&quot;&gt;self.free_grad_in_param_list&lt;/span&gt;" style="rounded=1;whiteSpace=wrap;html=1;" vertex="1" parent="WIyWlLk6GJQsqaUBKTNV-1">
          <mxGeometry x="933" y="160" width="180" height="60" as="geometry" />
        </mxCell>
        <mxCell id="9SEhbg0xae_aEMlPJVJQ-12" value="" style="edgeStyle=orthogonalEdgeStyle;rounded=0;orthogonalLoop=1;jettySize=auto;html=1;" edge="1" parent="WIyWlLk6GJQsqaUBKTNV-1" source="9SEhbg0xae_aEMlPJVJQ-9" target="9SEhbg0xae_aEMlPJVJQ-11">
          <mxGeometry relative="1" as="geometry" />
        </mxCell>
        <mxCell id="9SEhbg0xae_aEMlPJVJQ-16" value="" style="edgeStyle=orthogonalEdgeStyle;rounded=0;orthogonalLoop=1;jettySize=auto;html=1;" edge="1" parent="WIyWlLk6GJQsqaUBKTNV-1" source="9SEhbg0xae_aEMlPJVJQ-9" target="9SEhbg0xae_aEMlPJVJQ-15">
          <mxGeometry relative="1" as="geometry" />
        </mxCell>
        <mxCell id="9SEhbg0xae_aEMlPJVJQ-9" value="&lt;font style=&quot;font-size: 15px;&quot;&gt;self._optimizer_step()&lt;/font&gt;" style="rounded=1;whiteSpace=wrap;html=1;" vertex="1" parent="WIyWlLk6GJQsqaUBKTNV-1">
          <mxGeometry x="933" y="288" width="180" height="50" as="geometry" />
        </mxCell>
        <mxCell id="9SEhbg0xae_aEMlPJVJQ-14" value="" style="edgeStyle=orthogonalEdgeStyle;rounded=0;orthogonalLoop=1;jettySize=auto;html=1;" edge="1" parent="WIyWlLk6GJQsqaUBKTNV-1" source="9SEhbg0xae_aEMlPJVJQ-11" target="9SEhbg0xae_aEMlPJVJQ-13">
          <mxGeometry relative="1" as="geometry" />
        </mxCell>
        <mxCell id="9SEhbg0xae_aEMlPJVJQ-11" value="&lt;font style=&quot;font-size: 15px;&quot;&gt;self.optimizer.step()&lt;/font&gt;" style="rounded=1;whiteSpace=wrap;html=1;" vertex="1" parent="WIyWlLk6GJQsqaUBKTNV-1">
          <mxGeometry x="933" y="392" width="180" height="50" as="geometry" />
        </mxCell>
        <mxCell id="9SEhbg0xae_aEMlPJVJQ-13" value="&lt;font color=&quot;#ffff00&quot; style=&quot;font-size: 15px;&quot;&gt;_lazy_init_hp_params_optimizer_state&lt;/font&gt;" style="rounded=1;whiteSpace=wrap;html=1;fillColor=#330000;" vertex="1" parent="WIyWlLk6GJQsqaUBKTNV-1">
          <mxGeometry x="888" y="494" width="270" height="36" as="geometry" />
        </mxCell>
        <mxCell id="9SEhbg0xae_aEMlPJVJQ-18" value="" style="edgeStyle=orthogonalEdgeStyle;rounded=0;orthogonalLoop=1;jettySize=auto;html=1;" edge="1" parent="WIyWlLk6GJQsqaUBKTNV-1" source="9SEhbg0xae_aEMlPJVJQ-15" target="9SEhbg0xae_aEMlPJVJQ-17">
          <mxGeometry relative="1" as="geometry" />
        </mxCell>
        <mxCell id="9SEhbg0xae_aEMlPJVJQ-15" value="&lt;font style=&quot;font-size: 15px;&quot;&gt;self.parallel_partitioned_bit16_groups[i]&lt;/font&gt;&lt;div&gt;&lt;font style=&quot;font-size: 15px;&quot;&gt;[partition_id].data.copy_(fp32_partition.data)&lt;/font&gt;&lt;/div&gt;" style="rounded=1;whiteSpace=wrap;html=1;" vertex="1" parent="WIyWlLk6GJQsqaUBKTNV-1">
          <mxGeometry x="563" y="288" width="313" height="50" as="geometry" />
        </mxCell>
        <mxCell id="9SEhbg0xae_aEMlPJVJQ-20" value="" style="edgeStyle=orthogonalEdgeStyle;rounded=0;orthogonalLoop=1;jettySize=auto;html=1;" edge="1" parent="WIyWlLk6GJQsqaUBKTNV-1" source="9SEhbg0xae_aEMlPJVJQ-17" target="9SEhbg0xae_aEMlPJVJQ-19">
          <mxGeometry relative="1" as="geometry" />
        </mxCell>
        <mxCell id="9SEhbg0xae_aEMlPJVJQ-17" value="&lt;span style=&quot;font-size: 15px;&quot;&gt;all_gather_dp_groups&lt;/span&gt;" style="rounded=1;whiteSpace=wrap;html=1;" vertex="1" parent="WIyWlLk6GJQsqaUBKTNV-1">
          <mxGeometry x="366" y="288" width="160" height="50" as="geometry" />
        </mxCell>
        <mxCell id="9SEhbg0xae_aEMlPJVJQ-19" value="&lt;span style=&quot;font-size: 15px;&quot;&gt;self._update_model_bit16_weights[i]&lt;/span&gt;" style="rounded=1;whiteSpace=wrap;html=1;" vertex="1" parent="WIyWlLk6GJQsqaUBKTNV-1">
          <mxGeometry x="50" y="288" width="256" height="50" as="geometry" />
        </mxCell>
      </root>
    </mxGraphModel>
  </diagram>
</mxfile>
